{"title":"Teenage Mutant Ninja Turtles 2014 720p HDCAM V2 x264 Pimp4003","uid":10739083,"size":1664531308,"categoryP":"video","categoryS":"movies","magnet":"?xt=urn:btih:8b4e50592d3c0819da03bdcefee6e7c8da8e9020&amp;dn=Teenage+Mutant+Ninja+Turtles+2014+720p+HDCAM+V2+x264+Pimp4003&amp;tr=udp%3A%2F%2Ftracker.openbittorrent.com%3A80&amp;tr=udp%3A%2F%2Fopen.demonii.com%3A1337&amp;tr=udp%3A%2F%2Ftracker.coppersurfer.tk%3A6969&amp;tr=udp%3A%2F%2Fexodus.desync.com%3A6969","seeders":16,"leechers":0,"uploader":"shawnmurthy","files":-1,"time":1407727064,"description":"[color=red][b]WAY BETTER THEN MY FIRST CAM....THE VIDEO HAD SOME FLICKERING AND IT WAS FIXED...AUDIO WAS A LITTLE HOLLOW FIXED THAT TOO....AND YES THIS IS THE FULL SCREEN........ENJOY...PIMP4003 OUT[/b][/color]\n\nSOURCE-SPECTRE\n\n[IMG]http://i.imgur.com/fW5GLTr.jpg[/IMG]\n\n[IMG]http://i.imgur.com/kO6Icts.jpg[/IMG]\n\n[color=blue][b]SUPER FAST DOWNLOAD SPEEDS, REQUESTS, SCREENSHOTS, VIDEO INFO, SAMPLE AND FOR EXCLUSIVE RELEASES VISIT BELOW LINK[/b][/color]\n\n[color=Red][b]Teenage Mutant Ninja Turtles 2014 720p HDCAM V2 x264 Pimp4003[/b][/color]\n\nENJOY\n\nPIMP4003.....:)\n\nVideo\nID                                       : 2\nFormat                                   : AVC\nFormat/Info                              : Advanced Video Codec\nFormat profile                           : &lt;a class=&quot;__cf_email__&quot; href=&quot;/cdn-cgi/l/email-protection&quot; data-cfemail=&quot;17557664727b7e7972575b243927&quot;&gt;[email&amp;#160;protected]&lt;/a&gt;&lt;script cf-hash='f9e31' type=&quot;text/javascript&quot;&gt;\n/* &lt;![CDATA[ */!function(){try{var t=&quot;currentScript&quot;in document?document.currentScript:function(){for(var t=document.getElementsByTagName(&quot;script&quot;),e=t.length;e--;)if(t[e].getAttribute(&quot;cf-hash&quot;))return t[e]}();if(t&amp;&amp;t.previousSibling){var e,r,n,i,c=t.previousSibling,a=c.getAttribute(&quot;data-cfemail&quot;);if(a){for(e=&quot;&quot;,r=parseInt(a.substr(0,2),16),n=2;a.length-n;n+=2)i=parseInt(a.substr(n,2),16)^r,e+=String.fromCharCode(i);e=document.createTextNode(e),c.parentNode.replaceChild(e,c)}}}catch(u){}}();/* ]]&gt; */&lt;/script&gt;\nFormat settings, CABAC                   : No\nFormat settings, ReFrames                : 1 frame\nFormat settings, GOP                     : M=1, N=25\nMuxing mode                              : Container profile=&lt;a class=&quot;__cf_email__&quot; href=&quot;/cdn-cgi/l/email-protection&quot; data-cfemail=&quot;b2f0d3c1d7dedbdcd7f2869c83&quot;&gt;[email&amp;#160;protected]&lt;/a&gt;&lt;script cf-hash='f9e31' type=&quot;text/javascript&quot;&gt;\n/* &lt;![CDATA[ */!function(){try{var t=&quot;currentScript&quot;in document?document.currentScript:function(){for(var t=document.getElementsByTagName(&quot;script&quot;),e=t.length;e--;)if(t[e].getAttribute(&quot;cf-hash&quot;))return t[e]}();if(t&amp;&amp;t.previousSibling){var e,r,n,i,c=t.previousSibling,a=c.getAttribute(&quot;data-cfemail&quot;);if(a){for(e=&quot;&quot;,r=parseInt(a.substr(0,2),16),n=2;a.length-n;n+=2)i=parseInt(a.substr(n,2),16)^r,e+=String.fromCharCode(i);e=document.createTextNode(e),c.parentNode.replaceChild(e,c)}}}catch(u){}}();/* ]]&gt; */&lt;/script&gt;\nCodec ID                                 : avc1\nCodec ID/Info                            : Advanced Video Coding\nDuration                                 : 1h 34mn\nBit rate                                 : 2 294 Kbps\nWidth                                    : 1 280 pixels\nHeight                                   : 720 pixels\nDisplay aspect ratio                     : 16:9\nFrame rate mode                          : Constant\nFrame rate                               : 23.976 fps\nOriginal frame rate                      : 23.000 fps\nColor space                              : YUV\nChroma subsampling                       : 4:2:0\nBit depth                                : 8 bits\nScan type                                : Progressive\nBits/(Pixel*Frame)                       : 0.104\nStream size                              : 1.51 GiB (97%)\nWriting library                          : \nLanguage                                 : English\n\nAudio\nID                                       : 1\nFormat                                   : AAC\nFormat/Info                              : Advanced Audio Codec\nFormat profile                           : LC\nCodec ID                                 : 40\nDuration                                 : 1h 34mn\nBit rate mode                            : Constant\nBit rate                                 : 56.4 Kbps\nChannel(s)                               : 6 channels\nChannel positions                        : Front: L C R, Side: L R, LFE\nSampling rate                            : 48.0 KHz\nCompression mode                         : Lossy\nStream size                              : 38.0 MiB (2%)\nLanguage                                 : English\n &lt;a href=&quot;\nhttp://someimage.com/mDqMK1I&quot; rel=&quot;nofollow&quot; target=&quot;_NEW&quot;&gt;\nhttp://someimage.com/mDqMK1I&lt;/a&gt; &lt;a href=&quot;\nhttp://someimage.com/WJlA4wg&quot; rel=&quot;nofollow&quot; target=&quot;_NEW&quot;&gt;\nhttp://someimage.com/WJlA4wg&lt;/a&gt; &lt;a href=&quot;\nhttp://someimage.com/YULmUBn&quot; rel=&quot;nofollow&quot; target=&quot;_NEW&quot;&gt;\nhttp://someimage.com/YULmUBn&lt;/a&gt;\n","torrent":{"xt":"urn:btih:8b4e50592d3c0819da03bdcefee6e7c8da8e9020","amp;dn":"Teenage+Mutant+Ninja+Turtles+2014+720p+HDCAM+V2+x264+Pimp4003","amp;tr":["udp%3A%2F%2Ftracker.openbittorrent.com%3A80","udp%3A%2F%2Fopen.demonii.com%3A1337","udp%3A%2F%2Ftracker.coppersurfer.tk%3A6969","udp%3A%2F%2Fexodus.desync.com%3A6969"],"infoHash":"8b4e50592d3c0819da03bdcefee6e7c8da8e9020","infoHashBuffer":{"type":"Buffer","data":[139,78,80,89,45,60,8,25,218,3,189,206,254,230,231,200,218,142,144,32]},"announce":[],"urlList":[]}}